<?xml version="1.0" encoding="utf-8"?>
<!-- Generator: Adobe Illustrator 19.0.0, SVG Export Plug-In . SVG Version: 6.00 Build 0)  -->
<svg version="1.1" id="Layer_1" xmlns="http://www.w3.org/2000/svg" xmlns:xlink="http://www.w3.org/1999/xlink" x="0px" y="0px"
	 viewBox="0 0 142.2 57.8" style="enable-background:new 0 0 142.2 57.8;" xml:space="preserve">
<style type="text/css">
	.st0{fill:#0B0726;}
	.st1{fill:none;stroke:#FFFFFF;stroke-width:1.368;stroke-linecap:round;stroke-linejoin:round;stroke-miterlimit:10;}
</style>
<g id="XMLID_1_">
	<path id="XMLID_10_" class="st0" d="M114.1,57.8c5.7,0,10.3-4.6,10.3-10.3"/>
	<path id="XMLID_9_" class="st0" d="M124.4,47.6c0-5.7-4.6-10.3-10.3-10.3s-10.3,4.6-10.3,10.3c0,5.7,4.6,10.3,10.3,10.3"/>
	<path id="XMLID_8_" class="st0" d="M18.3,57.8c5.7,0,10.3-4.6,10.3-10.3"/>
	<path id="XMLID_7_" class="st0" d="M28.5,47.6c0-5.7-4.6-10.3-10.3-10.3S8,41.9,8,47.6c0,5.7,4.6,10.3,10.3,10.3"/>
	<path id="XMLID_6_" class="st0" d="M141.6,37.7c-0.4-0.4-0.8-1.4-1-2.2l-0.1-0.6c-0.2-0.8-0.3-2.2-0.3-3.1l0.2-9
		c0-0.9-0.2-2.2-0.4-3.1l-0.6-2c-0.2-0.8-0.7-2.2-1-2.9c-1.5-3.5-2.9-7-4.4-10.5c-0.4-1-0.8-2-1.5-2.7c-1.7-1.8-4.3-1.6-6.5-1.5
		L75.1,0.8c-4.3,0-8.6,0.1-12.9,0.1c-0.1,0-0.3,0-0.4,0c-7.1,0-14.7,1.2-21,4.7c-3.2,1.8-6.1,4.1-9,6.2c-3.5,2.4-6.9,4.8-10.4,7.3
		c-0.6,0.4-1.2,0.8-1.9,1.1c-4.1,1.6-8.2,3.3-12.1,5.1c-4.8,2.3-6,9.7-6.3,11.6C0.9,36.9,0.8,37,0.7,37C0.3,37.3,0,38.2,0,39v2.6
		c0,0.9,0.4,1.8,0.9,2c0.5,0.3,0.9,1.2,0.9,2V47c0,0.9,0.7,1.8,1.5,2.1L4,49.5c0.3,0.1,0.6,0.2,1,0.3c-0.1-0.7-0.2-1.4-0.2-2.2
		c0-7.4,6-13.4,13.4-13.4c7.4,0,13.4,6,13.4,13.4c0,1.1-0.1,2.2-0.4,3.3c0.4-0.7,1.3-1.3,2.1-1.3h65.7c0.9,0,1.6-0.5,1.6-1.1
		c0-0.1,0-0.1,0-0.2c0-0.3,0-0.5,0-0.8c0-7.4,6-13.4,13.4-13.4c7.4,0,13.4,6,13.4,13.4c0,0.6,0,1.2-0.1,1.8c0.5-0.6,1.3-1.1,2-1.2
		l7.5-0.7c0.9-0.1,2.2-0.5,2.9-0.9l0.8-0.4c0.8-0.4,1.4-1.5,1.4-2.3l0.1-3.9C142.2,39.1,141.9,38.1,141.6,37.7"/>
	<path id="XMLID_2_" class="st1" d="M91.8,4.5l1.6,16.1 M57.5,5l-2.1,17.8 M18.8,24.6l107.4-5.4c0,0,4.8-1,5.6-6.9"/>
</g>
</svg>
