<?xml version="1.0" encoding="utf-8"?>
<!-- Generator: Adobe Illustrator 19.0.0, SVG Export Plug-In . SVG Version: 6.00 Build 0)  -->
<svg version="1.1" id="Layer_1" xmlns="http://www.w3.org/2000/svg" xmlns:xlink="http://www.w3.org/1999/xlink" x="0px" y="0px"
	 viewBox="0 0 124 41" style="enable-background:new 0 0 124 41;" xml:space="preserve">
<style type="text/css">
	.st0{fill:none;stroke:#EE077E;stroke-width:0.136;stroke-miterlimit:10;}
	.st1{fill:#0B0726;}
	.st2{fill:none;stroke:#FFFFFF;stroke-width:1.368;stroke-linecap:round;stroke-linejoin:round;stroke-miterlimit:10;}
</style>
<path id="XMLID_7_" class="st0" d="M9.4,31.4L9.4,31.4L9.4,31.4z"/>
<path id="XMLID_6_" class="st1" d="M30.7,32.1c0-4.9-4-8.9-8.9-8.9c-4.9,0-8.9,4-8.9,8.9c0,4.9,4,8.9,8.9,8.9
	C26.7,41,30.7,37,30.7,32.1"/>
<path id="XMLID_5_" class="st1" d="M104.6,32.1c0-4.9-4-8.9-8.9-8.9c-4.9,0-8.9,4-8.9,8.9c0,4.9,4,8.9,8.9,8.9
	C100.6,41,104.6,37,104.6,32.1"/>
<path id="XMLID_4_" class="st1" d="M90.8,2.5l17.1,6.4c0.4,0.1,1.1,0.3,1.5,0.3l8.3,0.6c0.4,0,1.1,0.1,1.5,0.3c0,0,1.8,0.5,1.8,2.7
	v5.7c0,0.4,0.3,1,0.6,1.3l1.8,1.7c0.3,0.3,0.6,0.9,0.6,1.3v4c0,0.4-0.2,1-0.5,1.4l-1.8,2.4c-0.3,0.3-0.8,0.6-1.2,0.7l-12.8,1.4
	c-0.4,0-0.8-0.1-0.7-0.4V32c0-6.2-5-11.3-11.3-11.3s-11.3,5-11.3,11.3c0,0.5,0,0.6,0,0.6c0,0.4-0.3,0.8-0.7,0.8l-50.2,1.4
	c-0.4,0-0.7-0.3-0.6-0.7c0,0,0.2-1.1,0.2-2.1c0-6.2-5-11.3-11.3-11.3c-6.2,0-11.3,5-11.3,11.3c0,1.1,0.3,2.4,0.3,2.4
	c0.1,0.4-0.2,0.8-0.6,0.8l-0.5,0c-0.4,0-1.1,0-1.5-0.1c0,0-8.1-1-8.1-2.8c0-0.9,0.5-1.1,0.5-1.1c0.4-0.2,0.6-0.7,0.4-1.1l-0.7-1.9
	C0.1,27.9,0,27.2,0,26.8V25c0-0.4,0.2-1,0.5-1.3c0.2-0.3,0.5-0.9,0.6-1.3c0,0,0.7-3.3,4.4-4.7H5.4c3.8-1.4,15-4.9,27.2-5.7
	c0,0,15.4-12,37.2-12C85.4,0,90.4,2.4,90.8,2.5"/>
<line id="XMLID_3_" class="st2" x1="29.1" y1="17.9" x2="107.1" y2="14.3"/>
<line id="XMLID_2_" class="st2" x1="68.2" y1="4" x2="65.6" y2="16.2"/>
</svg>
