<?xml version="1.0" encoding="utf-8"?>
<!-- Generator: Adobe Illustrator 19.0.0, SVG Export Plug-In . SVG Version: 6.00 Build 0)  -->
<svg version="1.1" id="Layer_1" xmlns="http://www.w3.org/2000/svg" xmlns:xlink="http://www.w3.org/1999/xlink" x="0px" y="0px"
	 viewBox="0 0 127.8 50.7" style="enable-background:new 0 0 127.8 50.7;" xml:space="preserve">
<style type="text/css">
	.st0{fill:#0B0726;}
	.st1{fill:none;stroke:#FFFFFF;stroke-width:1.368;stroke-linecap:round;stroke-linejoin:round;stroke-miterlimit:10;}
</style>
<path id="XMLID_7_" class="st0" d="M34.3,39.9c0-6-4.8-10.8-10.8-10.8c-6,0-10.8,4.8-10.8,10.8c0,6,4.8,10.8,10.8,10.8
	C29.4,50.7,34.3,45.9,34.3,39.9"/>
<path id="XMLID_6_" class="st0" d="M110.9,39.9c0-6-4.8-10.8-10.8-10.8c-6,0-10.8,4.8-10.8,10.8c0,6,4.8,10.8,10.8,10.8
	C106.1,50.7,110.9,45.9,110.9,39.9"/>
<path id="XMLID_5_" class="st0" d="M127.7,34.4c-0.1-1.1-0.6-2.5-1.1-3.1c-0.5-0.6-0.9-2-0.9-3.2v-5c0-1.1-0.2-2.9-0.4-4l-0.4-1.9
	c-0.2-1.1-1-2.2-1.7-2.4c-0.7-0.2-1.8-1.1-2.4-2.1l-3.8-6.1l2.2-0.9l0,0c0,0,0.1,0,0.1,0l0.7-0.3c0.5-0.3,0.9-0.6,1-0.8
	c-2.6-0.6-8.6-1.2-8.6-1.2c-1.1-0.2-2.4-0.7-2.8-1c-0.4-0.4-1.7-0.8-2.8-0.9l-2.6-0.3c-1.1-0.1-2.9-0.3-4.1-0.3L84.3,0
	c-1.1-0.1-3,0-4.1,0L64.8,0.9c-1.1,0.1-2.7,0.5-3.5,1C60.5,2.4,59,3,57.9,3.2L54.1,4c-1.1,0.2-2.8,0.9-3.8,1.4l-13.1,7.3
	c-1,0.5-2.7,1.2-3.8,1.4L9.7,18.8C8.6,19,7,19.7,6.1,20.3c-0.9,0.6-2,1.8-2.4,2.7c-0.5,0.9-1.3,2.4-2,3.3c-0.6,0.9-1.3,2.6-1.5,3.7
	l-0.1,0.7c-0.2,1.1-0.1,2.9,0.4,3.9l0.6,1.5c0.4,1,1.5,2.4,2.5,3l1.1,0.7c0.9,0.6,2.6,1.2,3.7,1.3l0.3,0c0.4,0,0.8,0.1,1.2,0.1
	c0-0.5-0.1-0.9-0.1-1.4c0-7.6,6.1-13.7,13.7-13.7s13.7,6.1,13.7,13.7c0,0.4,0,0.8-0.1,1.2c0.2,0,0.5,0,0.7,0h4.4
	c1.1,0,2.4,0.2,2.9,0.4c0.5,0.2,1.8,0.4,2.9,0.4h12.6c1.1,0,2.1-0.2,2.2-0.5c0.1-0.3,1.1-0.5,2.2-0.5L86.5,41c0-0.4-0.1-0.8-0.1-1.2
	c0-7.6,6.1-13.7,13.7-13.7c7.3,0,13.2,5.7,13.6,12.9c0.1,0.1,0.1,0.1,0.1,0.2c0.1,0.6,1.1,0.8,2.2,0.6l7.2-1.5
	c1.1-0.2,2.6-0.8,3.3-1.2C127.3,36.7,127.8,35.5,127.7,34.4"/>
<path id="XMLID_4_" class="st0" d="M35.6,18.7c0,0,0.2,0.2,0.4,0.5c0.2,0.3,1.3,0.4,2.5,0.3l62.7-5.8c1.1-0.1,2.7-0.9,3.4-1.7l4-4.3
	"/>
<path id="XMLID_3_" class="st1" d="M35.6,18.7c0,0,0.2,0.2,0.4,0.5c0.2,0.3,1.3,0.4,2.5,0.3l62.7-5.8c1.1-0.1,2.7-0.9,3.4-1.7l4-4.3
	"/>
<line id="XMLID_2_" class="st1" x1="70.9" y1="5.2" x2="69.5" y2="16.6"/>
</svg>
